<?xml version="1.0" encoding="UTF-8"?>
<svg id="_レイヤー_2" data-name="レイヤー 2" xmlns="http://www.w3.org/2000/svg" viewBox="0 0 174.03 61.99">
  <defs>
    <style>
      .cls-1 {
        fill: #484745;
      }

      .cls-2 {
        fill: #414341;
      }

      .cls-3 {
        fill: #fff;
      }

      .cls-4 {
        fill: #4aad9e;
      }

      .cls-5 {
        fill: #3aafda;
      }
    </style>
  </defs>
  <g id="_レイヤー_1-2" data-name="レイヤー 1">
    <g>
      <g>
        <g>
          <path class="cls-5" d="M15.61,43.01c-4.54,0-8.27-1.44-11.21-4.32-2.94-2.88-4.4-6.8-4.4-11.76s1.45-8.67,4.35-11.65c2.9-2.99,6.3-4.48,10.2-4.48,4.25,0,7.51,1.37,9.78,4.11s3.4,6.33,3.4,10.76c0,1.79-.14,3.15-.42,4.06H9.28c.81,3.97,3.36,5.96,7.65,5.96,2.14,0,4.31-.65,6.49-1.95l3.22,5.8c-3.23,2.32-6.91,3.48-11.02,3.48ZM9.12,23.5h10.49c0-3.59-1.62-5.38-4.85-5.38-1.41,0-2.62.46-3.64,1.37-1.02.91-1.69,2.25-2,4.01Z"/>
          <path class="cls-2" d="M34.04,41.57V0h9.2v9.96l-.41,5.29c2.88-2.68,5.9-4.02,9.05-4.02,6.13,0,9.2,4.02,9.2,12.04v18.3h-9.25v-17.18c0-1.96-.27-3.33-.81-4.09-.54-.76-1.42-1.14-2.64-1.14-.98,0-1.83.2-2.54.61-.71.41-1.58,1.08-2.59,2.03v19.77h-9.2Z"/>
          <path class="cls-2" d="M75.97,42.28c-2.68,0-4.81-.86-6.4-2.59-1.59-1.73-2.39-3.86-2.39-6.4,0-3.15,1.3-5.59,3.91-7.32,2.61-1.73,6.79-2.91,12.55-3.56-.2-2.54-1.69-3.81-4.47-3.81-2.1,0-4.69.88-7.78,2.64l-3.2-6.1c4.37-2.61,8.61-3.91,12.71-3.91,8,0,11.99,4.51,11.99,13.52v16.82h-7.52l-.71-2.95h-.2c-2.71,2.44-5.54,3.66-8.49,3.66ZM79.17,35.12c1.52,0,3.02-.78,4.47-2.34v-4.73c-5.12.68-7.67,2.19-7.67,4.52,0,1.69,1.07,2.54,3.2,2.54Z"/>
          <path class="cls-2" d="M113.33,42.28c-4.3,0-7.84-1.39-10.6-4.17-2.76-2.78-4.14-6.56-4.14-11.33s1.51-8.52,4.52-11.33c3.02-2.81,6.69-4.22,11.03-4.22,3.32,0,6.2,1.05,8.64,3.15l-4.32,5.95c-1.29-1.08-2.56-1.63-3.81-1.63-2.03,0-3.64.73-4.83,2.19-1.19,1.46-1.78,3.42-1.78,5.9s.58,4.35,1.75,5.82c1.17,1.47,2.68,2.21,4.55,2.21,1.73,0,3.46-.69,5.18-2.08l3.51,6.1c-2.58,2.3-5.81,3.46-9.71,3.46Z"/>
          <path class="cls-2" d="M141.29,42.28c-3.96,0-7.38-1.41-10.24-4.22-2.86-2.81-4.29-6.57-4.29-11.28s1.43-8.48,4.29-11.31c2.86-2.83,6.28-4.24,10.24-4.24s7.32,1.42,10.16,4.24c2.85,2.83,4.27,6.6,4.27,11.31s-1.42,8.47-4.27,11.28c-2.85,2.81-6.23,4.22-10.16,4.22ZM141.29,34.81c3.32,0,4.98-2.68,4.98-8.03s-1.66-8.08-4.98-8.08-5.08,2.69-5.08,8.08,1.69,8.03,5.08,8.03Z"/>
          <path class="cls-4" d="M168.38,42.28c-1.56,0-2.86-.55-3.91-1.65-1.05-1.1-1.58-2.46-1.58-4.09s.52-2.95,1.58-4.07c1.05-1.12,2.35-1.68,3.91-1.68s2.9.56,3.94,1.68c1.03,1.12,1.55,2.47,1.55,4.07s-.52,2.99-1.55,4.09c-1.03,1.1-2.35,1.65-3.94,1.65ZM165.39,27.55l-1.32-17.64-.31-8.18h9.3l-.31,8.18-1.37,17.64h-6Z"/>
        </g>
        <g>
          <path class="cls-1" d="M3,53.25c.5.04.91.06,1.22.06h2.57v-.98c0-.28-.03-.63-.09-1.04h1.56c-.05.43-.07.78-.07,1.04v.98h2.38c.59,0,1-.04,1.22-.12l.57.34c-.1.27-.18.56-.22.86-.22,1.37-.58,2.51-1.1,3.43s-1.19,1.65-2.03,2.19-1.87.93-3.08,1.17l-.47-.52c1.08-.25,1.99-.64,2.73-1.18,1.47-1.06,2.3-2.89,2.48-5.5h-6.3v2.27c0,.28.02.56.06.84h-1.42c.03-.52.05-.82.05-.91v-1.91c0-.32-.02-.66-.06-1.02Z"/>
          <path class="cls-1" d="M14.72,61.02v-.82c.38.05.72.08,1.04.08h2.7v-4.91h-2.1c-.34,0-.68.02-1,.06v-.79c.36.04.69.06,1,.06h5.65c.29,0,.62-.02,1.01-.06v.79c-.38-.04-.72-.06-1.01-.06h-2.26v4.91h2.82c.09,0,.42-.03.98-.08v.82c-.29-.03-.62-.05-.98-.05h-6.81c-.34,0-.69.02-1.04.05Z"/>
          <path class="cls-1" d="M26.75,51.57h1.52c-.06.43-.09.81-.09,1.15v2.65c2.33-.61,4.12-1.36,5.39-2.25l.55,1.3c-1.94.76-3.92,1.32-5.94,1.7v2.7c0,.38.07.66.22.87.26.38.91.57,1.95.57,1.51,0,2.9-.12,4.17-.38v.87c-1.1.17-2.48.25-4.15.25-.49,0-.95-.01-1.38-.04s-.8-.1-1.12-.22c-.68-.25-1.02-.77-1.02-1.57v-6.45c0-.34-.03-.72-.09-1.15ZM32.74,51.37l.46-.19c.27.23.54.51.81.84s.51.63.69.91l-.87.36c-.24-.53-.61-1.17-1.09-1.92ZM34.11,50.87l.46-.19c.27.23.54.51.81.84s.51.63.69.91l-.87.36c-.24-.53-.61-1.17-1.09-1.92Z"/>
          <path class="cls-1" d="M37.48,55.2v-.8c.8.04,1.22.06,1.27.06h3.18v-1.61c0-.52-.05-.96-.14-1.35h1.63c-.06.32-.09.77-.09,1.35v1.61h2.81c.55,0,.95-.02,1.2-.05v.79c-.36-.02-.76-.04-1.21-.04h-2.8c-.05,1.92-.56,3.44-1.55,4.55-.52.59-1.23,1.1-2.11,1.51l-.56-.45c.77-.45,1.36-.95,1.76-1.51s.67-1.18.82-1.86.23-1.43.25-2.25h-3.15c-.38,0-.8.01-1.29.04Z"/>
          <path class="cls-1" d="M49.05,56.66v-.88c.62.05,1.23.07,1.83.07h6.42c.31,0,.58,0,.81-.03s.42-.03.59-.04v.88c-.61-.03-1.07-.05-1.38-.05h-6.43c-.8,0-1.41.02-1.83.05Z"/>
          <path class="cls-1" d="M64.07,56.27c0-.26.06-.49.19-.7s.29-.38.5-.5.45-.19.7-.19.49.06.7.19.38.29.5.5.19.45.19.7-.06.49-.19.7-.29.38-.5.5-.45.19-.7.19-.49-.06-.7-.19-.38-.29-.5-.5-.19-.45-.19-.7Z"/>
          <path class="cls-1" d="M72.06,56.49c2.41-.63,4.44-1.6,6.09-2.91.84-.66,1.62-1.44,2.34-2.32l1.08.97c-.87.87-1.95,1.73-3.26,2.59v5.03c0,.69.03,1.18.09,1.46h-1.54c.05-.51.08-1,.08-1.46v-4.25c-1.09.52-2.6,1-4.55,1.46l-.35-.57Z"/>
          <path class="cls-1" d="M83.09,57.34c.58-.48,1.12-1.01,1.61-1.57s.94-1.06,1.34-1.5.68-.71.86-.83.35-.18.54-.18c.37,0,.75.18,1.16.54.91.8,1.82,1.68,2.72,2.62s1.8,1.9,2.7,2.89l-1.05,1.15c-.41-.52-.82-1.07-1.25-1.63s-.86-1.12-1.29-1.66c-.98-1.26-1.79-2.21-2.44-2.85-.2-.19-.36-.28-.49-.28s-.3.13-.49.39-.41.56-.64.92-.48.73-.73,1.11-.49.76-.71,1.13-.43.7-.62.98l-1.21-1.23ZM90.17,52.76l.46-.2c.33.29.64.62.93,1s.49.65.61.83l-.87.36c-.26-.57-.63-1.23-1.12-1.99ZM91.74,52.16l.46-.2c.31.27.62.6.92.98s.51.66.62.85l-.87.36c-.26-.57-.63-1.23-1.12-1.99Z"/>
          <path class="cls-1" d="M95.79,59.86c2.1-.19,3.94-.84,5.52-1.96,1.43-1.02,2.58-2.3,3.46-3.84l.35.62c-.66,1.54-1.75,2.91-3.26,4.11s-3.24,2-5.2,2.39l-.87-1.32ZM96.05,52.49l.36-.4c1.05.38,2.3,1.15,3.73,2.31l-1.02,1.04c-.51-.68-1.18-1.38-2.03-2.11-.38-.33-.72-.61-1.04-.84Z"/>
          <path class="cls-1" d="M109.54,51.51h1.58c-.05.73-.08,1.19-.08,1.39v2.05c1.34.22,3.04.75,5.09,1.59l-.57,1.41c-.7-.54-1.83-1.14-3.39-1.79-.41-.17-.78-.32-1.12-.43v3.88c0,.62.04,1.15.11,1.58h-1.59c.07-.48.11-1.01.11-1.58v-6.7c0-.52-.04-.98-.12-1.39Z"/>
          <path class="cls-1" d="M117.45,58.87c.52-.7,1.01-1.7,1.48-3.01.22-.61.39-1.21.52-1.8h-1.72v-.67h1.82v-2.61h1.21v2.61h1.32c.54-.35,1.03-.76,1.48-1.21s.81-.92,1.08-1.38h1.12c.55.8,1.32,1.55,2.29,2.23.44.3.87.56,1.3.76-.15.19-.26.35-.34.49l-.13.28-.5-.27c-.14-.08-.29-.17-.46-.27v.26h-2.13v1.2h2.8v3.07h-2.5c.3.73.73,1.3,1.27,1.71s1.18.75,1.93,1c-.2.17-.32.34-.39.52l-.09.22-.53-.2c-.67-.26-1.25-.57-1.73-.93s-.9-.83-1.24-1.42c-.25.45-.63.87-1.14,1.27s-1.22.76-2.14,1.06l-.54.18-.08-.2c-.08-.18-.2-.33-.38-.46,1.62-.52,2.67-1.24,3.16-2.16.09-.14.16-.34.23-.6h-2.53v-.86l-.4.52-.25-.53c-.09-.19-.26-.47-.5-.86v4.92h-1.21v-4.44c-.38.9-.73,1.59-1.07,2.06l-.35.5-.29-.52c-.09-.16-.22-.32-.38-.48ZM120.75,55.12c.26.31.64.83,1.15,1.56v-1.21h2.68v-1.2h-1.99v-.15l-.9.5-.12-.3c0-.05-.06-.14-.16-.27h-.66v1.07ZM123.09,57.92h1.49v-1.85h-1.49v1.85ZM123.3,53.66h4.03c-.84-.58-1.53-1.19-2.07-1.83-.52.65-1.17,1.26-1.96,1.83ZM125.79,57.92h1.61v-1.85h-1.61v1.85Z"/>
          <path class="cls-1" d="M129.21,61.15c.55-.24,1.1-.54,1.65-.9s1.03-.72,1.42-1.1l.18-.19,1.02.39c-.42.42-.92.83-1.49,1.22s-1.12.72-1.65.98l-.46.23-.18-.23c-.1-.14-.27-.28-.49-.41ZM129.48,58.81v-.64h.3c.71,0,1.55,0,2.53-.02.29-.19.59-.39.9-.6-.73-.58-1.54-1.08-2.41-1.51l.66-.55.4.21s.1.05.15.07.1.05.15.07c.49-.38,1-.83,1.51-1.37h-2.87v1.58h-1.21v-2.2h4.73v-1.3h-4.76v-.64h4.76v-1.12h1.22v1.12h4.76v.64h-4.76v1.3h4.83v2.2h-1.23v-1.58h-4.37l.25.14c-.58.58-1.25,1.15-2.02,1.71.48.29.82.51,1.04.66.94-.68,1.71-1.3,2.33-1.86l.22-.22.98.52c-1.14.98-2.35,1.88-3.62,2.72.61-.02,1.24-.03,1.88-.04s1.29-.03,1.94-.04c-.62-.44-1.18-.79-1.65-1.07l.67-.55.36.22c.83.48,1.51.91,2.04,1.29s.92.69,1.15.92l-.76.7-.3-.3c-.2-.2-.45-.41-.74-.63-1.46.05-2.46.07-3.01.08v3.08h-1.22v-3.06c-1.14.03-2.64.06-4.49.08h-.35ZM136.29,59.52l.73-.5.38.18c.73.33,1.37.68,1.92,1.07s.95.68,1.17.89l-.84.67-.29-.28c-.76-.7-1.78-1.38-3.06-2.02Z"/>
          <path class="cls-1" d="M141.22,54.84v-.82c.41.06.85.1,1.3.11h1.12v-1.56c0-.15-.02-.48-.06-1.01h1.45c-.05.37-.08.7-.08,1.01v1.56h3.07v-1.57c0-.39-.02-.75-.07-1.09h1.48c-.05.39-.08.75-.08,1.09v1.57h1.08c.59,0,1.01-.03,1.24-.09v.82c-.24-.03-.65-.05-1.23-.05h-1.09v.36c0,1.77-.27,3.09-.8,3.95-.28.46-.66.87-1.15,1.21s-1.08.68-1.78,1l-.57-.59c.57-.21,1.04-.45,1.42-.73s.68-.62.91-1.03c.43-.77.64-2.02.64-3.75v-.43h-3.07v1.88c0,.39.02.79.05,1.21h-1.42c.04-.52.06-.93.06-1.21v-1.88h-1.12c-.51,0-.94.01-1.3.04Z"/>
          <path class="cls-1" d="M153.12,56.49c2.41-.63,4.44-1.6,6.09-2.91.84-.66,1.62-1.44,2.34-2.32l1.08.97c-.87.87-1.95,1.73-3.26,2.59v5.03c0,.69.03,1.18.09,1.46h-1.54c.05-.51.08-1,.08-1.46v-4.25c-1.09.52-2.6,1-4.55,1.46l-.35-.57Z"/>
          <path class="cls-1" d="M167.44,51.51h1.58c-.05.73-.08,1.19-.08,1.39v2.05c1.34.22,3.04.75,5.09,1.59l-.57,1.41c-.7-.54-1.83-1.14-3.39-1.79-.41-.17-.78-.32-1.12-.43v3.88c0,.62.04,1.15.11,1.58h-1.59c.07-.48.11-1.01.11-1.58v-6.7c0-.52-.04-.98-.12-1.39Z"/>
        </g>
      </g>
      <circle class="cls-5" cx="14.41" cy="21.58" r="5.55"/>
      <circle class="cls-3" cx="15.44" cy="21.58" r="5.55"/>
    </g>
  </g>
</svg>