<?xml version="1.0" encoding="UTF-8"?>
<svg id="_レイヤー_2" data-name="レイヤー 2" xmlns="http://www.w3.org/2000/svg" viewBox="0 0 173.87 43.01">
  <defs>
    <style>
      .cls-1 {
        fill: #414341;
      }

      .cls-2 {
        fill: #fff;
      }

      .cls-3 {
        fill: #4aad9e;
      }

      .cls-4 {
        fill: #3aafda;
      }
    </style>
  </defs>
  <g id="_レイヤー_1-2" data-name="レイヤー 1">
    <g>
      <path class="cls-4" d="M15.61,43.01c-4.54,0-8.27-1.44-11.21-4.32-2.94-2.88-4.4-6.8-4.4-11.76s1.45-8.67,4.35-11.65c2.9-2.99,6.3-4.48,10.2-4.48,4.25,0,7.51,1.37,9.78,4.11s3.4,6.33,3.4,10.76c0,1.79-.14,3.15-.42,4.06H9.28c.81,3.97,3.36,5.96,7.65,5.96,2.14,0,4.31-.65,6.49-1.95l3.22,5.8c-3.23,2.32-6.91,3.48-11.02,3.48ZM9.12,23.5h10.49c0-3.59-1.62-5.38-4.85-5.38-1.41,0-2.62.46-3.64,1.37-1.02.91-1.69,2.25-2,4.01Z"/>
      <path class="cls-1" d="M34.04,41.57V0h9.2v9.96l-.41,5.29c2.88-2.68,5.9-4.02,9.05-4.02,6.13,0,9.2,4.02,9.2,12.04v18.3h-9.25v-17.18c0-1.96-.27-3.33-.81-4.09-.54-.76-1.42-1.14-2.64-1.14-.98,0-1.83.2-2.54.61-.71.41-1.58,1.08-2.59,2.03v19.77h-9.2Z"/>
      <path class="cls-1" d="M75.97,42.28c-2.68,0-4.81-.86-6.4-2.59s-2.39-3.86-2.39-6.4c0-3.15,1.3-5.59,3.91-7.32s6.79-2.91,12.55-3.56c-.2-2.54-1.69-3.81-4.47-3.81-2.1,0-4.69.88-7.78,2.64l-3.2-6.1c4.37-2.61,8.61-3.91,12.71-3.91,8,0,11.99,4.51,11.99,13.52v16.82h-7.52l-.71-2.95h-.2c-2.71,2.44-5.54,3.66-8.49,3.66ZM79.17,35.12c1.52,0,3.02-.78,4.47-2.34v-4.73c-5.12.68-7.67,2.19-7.67,4.52,0,1.69,1.07,2.54,3.2,2.54Z"/>
      <path class="cls-1" d="M113.33,42.28c-4.3,0-7.84-1.39-10.6-4.17-2.76-2.78-4.14-6.56-4.14-11.33s1.51-8.52,4.52-11.33c3.02-2.81,6.69-4.22,11.03-4.22,3.32,0,6.2,1.05,8.64,3.15l-4.32,5.95c-1.29-1.08-2.56-1.63-3.81-1.63-2.03,0-3.64.73-4.83,2.19-1.19,1.46-1.78,3.42-1.78,5.9s.58,4.35,1.75,5.82c1.17,1.47,2.68,2.21,4.55,2.21,1.73,0,3.46-.69,5.18-2.08l3.51,6.1c-2.58,2.3-5.81,3.46-9.71,3.46Z"/>
      <path class="cls-1" d="M141.29,42.28c-3.96,0-7.38-1.41-10.24-4.22-2.86-2.81-4.29-6.57-4.29-11.28s1.43-8.48,4.29-11.31c2.86-2.83,6.28-4.24,10.24-4.24s7.32,1.42,10.16,4.24c2.85,2.83,4.27,6.6,4.27,11.31s-1.42,8.47-4.27,11.28c-2.85,2.81-6.23,4.22-10.16,4.22ZM141.29,34.81c3.32,0,4.98-2.68,4.98-8.03s-1.66-8.08-4.98-8.08-5.08,2.69-5.08,8.08,1.69,8.03,5.08,8.03Z"/>
      <path class="cls-3" d="M168.38,42.28c-1.56,0-2.86-.55-3.91-1.65-1.05-1.1-1.58-2.46-1.58-4.09s.53-2.95,1.58-4.07c1.05-1.12,2.35-1.68,3.91-1.68s2.9.56,3.94,1.68c1.03,1.12,1.55,2.47,1.55,4.07s-.52,2.99-1.55,4.09c-1.03,1.1-2.35,1.65-3.94,1.65ZM165.39,27.55l-1.32-17.64-.3-8.18h9.3l-.31,8.18-1.37,17.64h-6Z"/>
    </g>
    <circle class="cls-4" cx="14.41" cy="21.58" r="5.55"/>
    <circle class="cls-2" cx="15.44" cy="21.58" r="5.55"/>
  </g>
</svg>